<svg version="1.1" id="Capa_1" xmlns="http://www.w3.org/2000/svg" xmlns:xlink="http://www.w3.org/1999/xlink" x="0px" y="0px"
	 width="340.7px" height="133.7px" viewBox="0 0 340.7 133.7" style="enable-background:new 0 0 340.7 133.7;" xml:space="preserve"
	>
<style type="text/css">
	.st0{fill-rule:evenodd;clip-rule:evenodd;fill:#EBA900;}
	.st1{fill:#EBA900;}
	.st2{fill:#00833E;}
</style>
<g>
	<g>
		<path class="st0" d="M20.1,45.4c3.7,0.8,4.5,2.6,7.1,2.2c0.1-0.4-0.2-0.8,0-1.1c1.6,1,1.4,0.5,2.6,1.5c2.3-2.3,0.6-0.7,1.1-2.2
			c15.1,5.8,12.2-0.1,10.6,12.5c-4.3-3.1-3.5-2.1-4.3-2.1c0,0-5.8-4.1-7.8-4.1c0,0-8.1-5.9-10.4-6.7H20.1z M79.2,29.9
			c3.8,3.9,1.7,3.8,7.7,5C87,30.6,82.5,30,79.2,29.9z M92.8,35.8c2.7,2.3,9.3,7,12.8,5.6C100.9,38.4,98.8,36.2,92.8,35.8z
			 M68.7,13.2L66,11.8c-1.2,0.8-2.7,3.3-1.4,3.5c3.2,0.1,10.4,6.7,10.5,2.7C75.1,17.4,69.5,13.6,68.7,13.2z M79.8,21.7
			c2.3,1,4.5,1.9,7.2,2.3v2.7C83.9,26,81.1,23.6,79.8,21.7z M73,5.2c0.6,1.6,6.7,5.8,9.7,4.8c-1.4-2.2-5-5.2-7.5-5.2
			c0,0,0.7-0.5-2.2-1.5c5.3-1,6.6,3.2,13.4,3.3c-0.2-0.1-1.1,0-1.1,0c1.3-0.5,1.5-0.7,1.5-0.7c0,0,0.1,0.3,3,1.9
			c-0.9,0-0.3-0.1-1.9,0c0.9,1,8.5,7.1,12.3,7.1c0,0-0.1,0.5,1.9,1.1v-1.1c-5.9-3.5-5.9-2.4-6.3-4.5c0.9,1.4,1.1,1.1,1.1,1.1
			s1.7,0.8,2.2,1.1c0-2.8-2-4.1-4.5-4.1c-0.7-0.5-1.8-1.4-3.7-1.1c0,0-0.1-0.2-3.3-2.6h1.1c4.1,2,13.6,6.3,17.5,8.9
			c0,0.1,3.3,1.6,5.6,2.2c-0.1-0.5-0.3-0.9-0.7-1.5c1,0.4,1.2,0.5,1.2,0.5c0,0-0.2-0.3,0.6-0.5v1.1c-0.3,0.2-0.7,0.4-1.1,0.7
			c1.4,1.6,3,0.6,3.4,2.2c0,0,2.2,1.5,3,1.5c0.4,0,0.4,1.1,1.9,1.1c0,0,2.5,3.3,5.2,3.3c0,0,2.6,2.6,4.8,2.6c0.5,0-0.5,0.9,2.6,0.4
			c-0.9-1.2-1.4-1.9-2.6-1.9c-0.1,0-0.1-1.1-3-1.1c0,0,0.3-1.1-1.9-1.1l-4.5-4.1c0-1-1.9,0-1.9,0s-10.2-10-12.3-10L99.4,6h1.1
			c-1.9-2.1-1.1-0.4-1.1-0.4V4.5c5.2,2.1,11.7,5.5,17.5,9.3c0.1-2.2-1.9-2.1-3.7-4.5c1.1,0.7,2,1.1,3.3,1.1c2.5,2,18.9,13.5,20.5,16
			l1.9-1.9c-5.1-3.6-5.4-3.4-5.6-4.5c0.9,0.7,6.2,4.3,7.5,4.8c-0.8,1.8-0.7,1.5-1.9,2.2c0.9,1.3,0.4,0.9,2.6,2.2
			c0.2-0.5,0.1-0.9,0-1.5h1.1c3.6,2.8,6.4,2.9,7.1,5.6c-0.4-0.3-3.1-2.2-3.7-2.2c-0.5,0-0.1-0.1-2.6-1.1v1.1
			c9.9,7.6,9.7,7.5,11.2,8.9c-0.5,0-1,0.2-1.1,0.7c-2.2-1-1.4-1.2-3.7-0.7c1.7,1.4,3.9,2.6,4.5,5.6H153c-0.8-1-8-7-10.8-8.9
			c-1.5,1.3,0.8,0.5-1.1,0.4c0.2,2.5,1.5,1.8,1.5,4.5c0,0.3,10.8,10.1,10.8,10.4c0,0,4.8,3.8,4.8,4.8c0,0,6.3,4.5,6.3,7.5
			c0,0.7,2.5,3.3,4.8,5.6c-0.5-0.3-3.7-2.3-5.6-5.6c-0.2-1.6-0.4-1.9-2.6-1.9L150,53.6l-0.1-4.8h-7v3.3h-3.3v-3.3h-6.7v3.3h-3.3
			v-3.3h-6.3v9.9l4.8,0.1l-3,17.9c0,0-5.7-4.1-6-4.5H118c0.4,1.4,5.3,6.6,6.5,7.3l-1.4,7c0,0.1-0.1-0.1-3.7-0.1L115.5,64
			c2.7-0.5,6.9,2.7,10,6.3c-8.2-5.9-7.1-4.3-7.1-14.5h-5.2c0,1.2,0,1.6,0,2.6c-1.4,0.1-0.8,0.1-2.6,0v-2.6h-5.2v2.6H102v-3h-7.5
			l4.5-0.3c0,0,0.1-1.3,0-3c0.5,0.1,0.9,0.1,1.5,0c-1.6-1.4-0.7-0.3-1.5,0c0.1-3.4,0-2.5,0-7.1h-7.2c0,2.9-3.1-1.3-8.4-2.6V44
			c2.2-0.2,6.6,2.5,8.6,4.5h-3.7l0.1-3h-7.5v3.3h-3.3v-3.3h-7.8v9.7h6L72.3,79l-5.6-34.6h7.5V32c-1.2-0.8-6.3-1.5-6.3-1.5
			c-0.5-0.3-9.8-4-13-3.3c0,0,0.5-1.1-2.6-1.1v1.1c3.5-0.2,3.8,1.9,14.5,4.5h-2.2c-1,1.3-0.7,4.1-0.7,4.1h-4.5c0,0,0.6-4.5-1.9-4.1
			h-4.8c-0.8-0.3-1.6-0.5-3-0.7v1.9c-4.8,0.4-12.4-4.6-17.2-3.7c-0.4,0,0.4-1.1,0-1.1c-2.9,0-2.6-1.4-4.5-2.2h3v1.1
			c0.5,0.4,2.6,1.9,6,1.9c0.8,0,1,1.5,2.2,1.5c0.6,0,5.2,0.4,6.7,1.9h2.6c-1.2-1.2-3.4-2.4-6-1.9v-1.1c1.6,0.1,3.1,1,4.8,0l1.1,1.1
			l0.7-0.7c-1.2-0.9-5.4-2.6-6.7-2.6c-0.9,0-0.5-1.1-4.1-1.1h-1.5c-0.1-0.9-1.3-1.7-4.1-1.5c0,0,0-0.5-1.1-1.1c6.1,0,5-0.5,10.4,2.6
			c0,2.6,5.1,0,5.2,0c0,0,0.1,0.6,1.9,1.5v-1.1c-2.4-0.8-4.3-1.9-6.7-1.9c0,0,0.8-1.1-3-1.1h-2.6c-0.3,0,0.7-1.1-1.9-1.1h-2.6
			c0.9-0.8-1.9-1.7-4.1-1.5c1.4-0.3,3.1-0.4,6.7-0.4c0.5,0-1.2,1.1,1.9,1.1h3c0.3,0-1.5,1.1,1.1,1.1c3.8,2.4,8,1.6,13,1.9v-1.1
			c-1.1-0.9,0.5-0.3-11.5-3.7c2,0,3.8-0.1,5.2,1.1c0,0,1.5,0,1.5,0V19c-4.4-0.3-7.1-1.1-9-2.2c0,0-1.1,0-1.1,0l0.4,0.7
			c-1.9-2.3-1.4-1-2.6-0.7c0.5-0.3,4.3,0,14.5,0c1.4,0-1.5,1.1,1.9,1.1c1,0-1.2,1,2.2,0c-0.6-1.5-2.2-1.1-3.4-1.1
			c0,0-2.6-1.3-3.3-1.9c-0.3-0.7-0.5-1.1-1.1-1.1c-0.4,0-1-1.1-3.3-1.1c0,0-1.8-1.9-6.7-1.9c0,0-0.7-1.1-3-1.1c0,0-0.3-0.9-2.6-1.5
			c3.9-0.3,11.6,3,12.7,3c1.4,0,0.9-0.3,1.5-1.5c0.9,0.2,1.6,0.1,2.6,0V7.7c0.5,0,5.6-0.1,6.3,0V6.6c-0.5-0.2-0.6,0.1-1.1,0l3.7-0.7
			c0,1.2,2.4,1.2,4.1,1.1c0,0,0.1,0.7,1.9,1.5V7.4C62,6.2,59.3,5.1,57,3.7c5.1,1.4,8.9,4.3,11.5,5.6V8.1C66.3,6.6,64,5.5,63.3,4
			c2.6,1.7,3.7,3,6,2.2c-0.1-0.1-6.1-4.1-9.3-5.6C60.6,0.8,73,4.5,73,5.2z M34.6,99c-0.4-0.5-1-1.1-1.5-1.9
			C33.7,97.7,34.3,98.3,34.6,99z M29.1,94.2c-1.3-1.3-1.3-1.5-1.5-1.9C28.8,93.6,28.8,93.8,29.1,94.2z M20.8,90.1
			c1.3-0.2,2,0.6,2.2,1.9C22.4,91.1,21.7,90.8,20.8,90.1z M12.7,86c-0.4-0.4-0.8-0.7-1.5-1.1C11.2,84.9,12.1,85,12.7,86z
			 M149.3,80.4c0.3,2.1-0.1,0.2,1.1,3h-1.1C149,82.3,149.1,81.6,149.3,80.4z M156.4,80.8c-0.6-0.4-1.2-0.8-1.5-1.5L156.4,80.8z
			 M174.3,76.7c-1.6-2.6-2-0.5-3.4-3.7C172.9,73.3,174,74.8,174.3,76.7z M9.7,72.6h1.1c1.5,2,4.7,2.2,5.6,5.6
			C14.8,75.8,11.3,74,9.7,72.6z M8.2,71.1l0.4,0.7H7.5L8.2,71.1z M152.3,75.2c0.7,0,1.6,1,1.9,3c-1.9-3.3-3.2-0.3-7.5-7.5
			C149.5,71.6,150.8,75.2,152.3,75.2z M157.9,71.5c-2-1.5-3.7-3.3-4.5-4.8C156.8,70,157.2,70.3,157.9,71.5z M0.7,65.5
			c0,0,2.1,1.9,4.1,3.7c-1.5-0.3-3.7,0.6-1.9-1.5c0,0-1.4-0.6-3-1.9L0.7,65.5z M10.4,67.8c-1.5-1.3-2.8-1.4-3-3
			C8.2,65.7,9.8,65.3,10.4,67.8z M156.8,75.2c-1.7-1.1-10.5-8-11.2-11.2L156.8,75.2z M29.8,59.6h1.1c0.9,0.7,1,0.8,1.5,1.1
			c-1.5-0.4-1.4-0.7-2.6,0V59.6z M96.1,56.8v6.9h4.5L97.8,80l-4.9-24.3L96.1,56.8z M150.4,55.5c0,0,4.8,4,4.8,4.8
			c1.4,1.5,11.8,11.2,12.3,13.8c0,0-4.8-5.8-4.8-6c-2.9,2.4-1.2,1.9,0.7,4.5c-2.6-0.8-9.6-9-15.6-12.7c0.6,2.3,2.3,3.5,4.5,5.2
			c-0.5-0.3-5.2-3.3-5.2-4.5c0-0.3-1-0.1-2.2-1.5v-1.1c1.2,0.1,5.5,0,5.5,0S150.4,54.7,150.4,55.5z M19,53.2c0.1,0-0.9,0.3,2.6,2.2
			h-1.1c-1.9-1.4-3.5-1.8-6-2.2H19z M10.4,52.9c0,0,0.3,0.2,2.2,1.9c-1.2-0.8-2.3-1.3-3.7-1.1C9.5,53.4,9.8,52.9,10.4,52.9z
			 M157.1,50.6c0.7,1.2,0.1,0.3,0,1.1h1.1C157.8,51.7,157.4,51.7,157.1,50.6z M11.5,51.4c-1.4,0.2-2.3-0.7-3.7-1.5
			C9.7,50.1,9.7,50.4,11.5,51.4z M153.8,48.4c0.7,0.5,1.2,0.7,1.9,1.1c-1.2-0.4-1.4-0.1-1.9,0V48.4z M130.7,46.6l-0.4,0.7l-0.4-0.4
			L130.7,46.6z M13,46.2c8.6,5.1,9.9,5.4,10.8,4.5c-4.6-2.7-4.1-1.8-5.6-3.7c0,0,8.1,4.1,8.2,4.1c0.1,0,14.2,11.3,14.4,11.6L35,97.2
			c0,0-5.8-7.5-9.3-7.5c0,0,0.4,0-1.9-1.5h-1.5c0.4,0.7,0.5,0.5,0.7,1.5c-0.5-0.8-3.5-2.8-8.6-6.3c2.9,1.4,3.1,2.4,5.6,2.6
			c-1.6-2.9-0.6-0.2-10.8-7.5c3.3,0.6,6,3.3,6,3.3c0,0.1,1.3,0.5,3.3,1.5v-1.1c-1.1-0.9-1.9-1.5-2.6-2.2c3.2,1.9,2.3,2.2,3.7,2.2
			l6.3,4.8c0,0,0-0.3,1.9-0.7c-1.2-3.5-1.9-0.9-2.2-3.7h-1.5c0,0-21.4-18.1-21.6-19c0.6-0.1,1.2,0,1.9,0c-1.9-4-1.6-0.5-3.7-4.1h1.1
			c2.6,2.1,4.6,2,12.3,7.1c5.1,3.3,5.7,7.5,10.4,7.5c0.3,0-0.1,0.7,0,1.1h1.5v-1.9c-3.2-3.5-3.3-1.8-3.3-3.7c0-1-1.8-1.7-2.2-1.9
			v-1.1c1.3-1.3,0.6-0.3,1.1-1.9c-1-0.7-1.4-1.9-2.6-1.9c0,0-3.7-2-4.5-3c1.2,0.5,2,1.1,3.3,1.1c0,0,8.7,7.9,12.7,7.1
			c-3.4-5.2-4.4-0.1-4.1-4.5h-1.1h1.5v-1.1l0.4-0.7c-1.3-0.3-9.5-3.1-8.9-5.9c1.2,0.1,1.8,0,3,0c0,0,4.1,3.3,6.3,3.3
			c0.5,0,2.9-2.3,5.2,0v-1.1c-0.2-2.3,0.6-2.2-1.5-2.2c0,0-3.3-1.5-4.1-1.5c-0.9,0-2.6,2.1-3.7-1.1c-3-2.4-3.1-1.5-4.1-1.5
			c0.4,0.5,0.9,1.1,1.1,1.9c-5.8-4.1-9.5-6.7-10.5-7.4H13z M151.9,47.7c-0.3-0.5-0.6-0.9-1.1-1.5C151.4,46.6,151.7,47,151.9,47.7z
			 M111,47.3c-0.2-0.5-0.4-0.9-0.4-1.5h0.4V47.3z M43.9,44l-0.7,4.5c-3.7-3.7-3.3-4.2-3.7-4.5H43.9z M10,43.6
			c-0.7,0.1-0.8,0.2-0.8,0.2c0,0.1,0.7,0-0.7-0.2H10z M147.1,42.8H146l0.4-1.1C146.4,42.2,146.9,42.6,147.1,42.8z M107.7,45.1
			c1.2,0.1,1.2,0.3,1.9,0.7c0,0-4.6-1.7-6-3.7C106.7,44.2,107.2,43.6,107.7,45.1z M30.9,35c0.9,0.4,1.1,0.3,1.9,0v1.1
			c-0.7-0.1-1.2-0.2-1.9,0V35z M81.5,34.3c1.9-0.1,6.6,1.3,8.2,4.1c-0.8-1-1.4-0.7-1.9-1.9C85.9,36.8,83.8,34.9,81.5,34.3z
			 M45.1,33.9h1.1c1.1,0.9,2,1.3,3.3,1.9h-4.5C45,35.3,45,34.8,45.1,33.9z M13,33.9c-0.3,0.2-0.8,0.2-1.1,0H13z M95,33.9
			c-0.2,0-0.7-0.1-1.1,0C94.3,33.7,94.6,33.7,95,33.9z M35.4,33.1c0.1,1.7,0.1,1.9-0.4,3c-0.2-2.3,0-1.9-2.6-2.6
			C33.4,33.5,34.1,33.7,35.4,33.1z M141.5,32.8c0.4,0.3,0.6,0.6,1.1,0.7c-0.5,0-1,0-1.5,0L141.5,32.8z M153.4,36.1
			c-0.7-1.8-1.4-2.6-1.9-3.7C154.4,34.5,153.6,34.7,153.4,36.1z M12.3,32c1.2,0.1,1.8,0,3,0c0,0,3.1,2.2,5.6,2.2
			c0.2,0,0.3,1.1,3,1.1c0.5,0,2.1,2.6,6.3,2.6c0,0,5,1.9,5.6,2.6v2.2c-1.3-0.5-2-1.1-3.3-1.1l-8.2-4.5c-2.4,0-7.6-4.1-10.8-4.1
			c0,0-0.2-0.3-1.1,0L12.3,32L12.3,32z M134.1,32c0,0,5.2,3.3,6.3,5.6c-0.2-0.4-0.1-0.7,0-1.1h-1.1c0,0-5.1-4.2-6.3-3.7
			c-0.4-1.5-0.1-0.7-1.1-1.9C134.2,32.5,132.5,32,134.1,32z M34.6,29.4c0.1,0,0.7,1.5,3.3,1.5c0.3,0,0.5,0.5,1.1,0.7
			c-2,0.3-4.2-1.6-5.6-1.9C34.1,29.8,34.1,29.4,34.6,29.4z M133.7,27.9l-0.4,0.7c0-0.1-0.3,0-0.4,0L133.7,27.9z M82.3,28.7
			c-0.9-0.2-1.4-0.3-2.2,0C81.5,27.8,80.5,28.2,82.3,28.7z M36.1,26.1c1.8,0.6-0.1-0.4,3.7,1.5h-3c0,0-0.5-0.3-2.2-1.5H36.1z
			 M90.1,26.1c-1.2-0.5-0.3-0.3-1.1,0C89.3,25.9,89.8,25.9,90.1,26.1z M73.7,25l0.4,0.7c-0.4-0.1-0.9-0.1-1.1,0L73.7,25z M71.1,24.6
			h1.1L71.5,25L71.1,24.6z M29.8,22.7c0,0,0.5,0.7,1.5,1.5c-2.1,0-3.6-0.8-4.8-1.1C28.6,22.9,29.8,22.7,29.8,22.7z M83.3,16.8
			c2.9,1.4,3.5,0.8,4.5,2.6c-1.1-1-2.2-1.1-3.7-1.1l-2.2-1.5H83.3z M21.2,20.5c0,0,0.3,0.7,3,1.1c-1.5,0.2-4.8-1-5.6-1.1
			C20.1,20.5,20.3,20.5,21.2,20.5z M136.6,20.5h-1.5c0.7-0.3,0.7-0.3,0.7-0.4C135.9,20.1,135.8,20.2,136.6,20.5z M24.6,17.9
			c-0.5,0.8-0.5,0.2,0,1.1c-2.2-0.5-0.8-0.6-2.6,0v-1.1C23,18,23.6,18,24.6,17.9z M34.3,17.5c0.1,0-1.1,0.9,4.1,1.9
			c-3.1,0.2-3.3-1.5-8.9-1.9C29.4,17.5,34.3,17.5,34.3,17.5z M104.3,15.6c0.1,0,1.2,0.3,2.2,1.9c-0.3,0-0.5,0.2-0.7,0.4
			c0-0.1-0.1-0.7-0.7-1.1c-0.7-0.1-0.3,0.2-0.7,0.4C104.4,16.8,104.6,16.4,104.3,15.6z M13.8,15.3c2,0.5,0.9,0.7,2.6,0v1.1
			c-2.3-0.5-1-0.5-2.6,0V15.3z M19,14.5c0,0,6.3,2,7.8,2.6c-0.5,0-2.1,0-3,0c0,0-1-1.5-4.1-1.5c-0.3,0-3.3-1.6-5.6-1.9
			C18.3,13.8,15.3,14.5,19,14.5z M122.9,12.3v1.1c-0.7-0.3,0,0.6-1.5-1.1C123.2,14.1,122.1,12.6,122.9,12.3z M100.2,12.3L99.8,13
			c0-0.1-0.3,0-0.4,0L100.2,12.3z M57,12.3c-1.8,1-2.3,0.3-4.1,0C54.2,12.3,55.1,12.8,57,12.3z M71.5,11.9c0.1,0,0.3,1.7,1.9,1.1
			c1.2,1.9,1,0.8,1.9,0.7c-0.3,0.1-2.2,0.4-2.6,0.4l-4.5-2.2C69.1,11.8,69.6,11.9,71.5,11.9z M62.2,11.9v0.4h-1.1v-0.4H62.2z
			 M64,11.9c-0.3,0-0.5-0.1-0.7-0.4L64,11.9z M124,10.4c1.8,0.7,2.1,0.8,2.6,2.2C125.3,11.1,125.3,11.5,124,10.4z M57,10
			c0.2,0,0.4,1,2.2,1.1c-1.7,0.3-1.7,0.4-3.3,0.4c0,0-0.3-0.5-1.9-1.1C55.4,10.3,57,10,57,10z M102.4,10c0,0,0.9,0.6,2.6,1.9
			c-1.7-1.2-2.2-1.3-3.7-1.9C101.7,10.1,102.2,10,102.4,10z M53.2,9.7c-1.5,0.4-2.1,0.1-3,0.7C51,10.2,52.9,9.8,53.2,9.7z M42.1,8.2
			c-0.5,0.1-1,0.1-1.5,0C40.9,8.2,41.5,8.2,42.1,8.2z M105.8,4.8c1,1,0.5,0.1,0,1.1V4.8z M48,4.1v1.1c-1-0.6-1.6-1-3-1.1
			C45.6,4.1,46.9,4.2,48,4.1z M94.2,3.3c0.8,0.5,0.4,0.4,1.1,0v1.1h-1.1V3.3z M86.4,1.5C85,1,84.9,1.1,84.1,0
			C84.9,0.4,85.4,0.7,86.4,1.5z"/>
		<rect x="39.3" y="109.6" class="st1" width="301.4" height="1.8"/>
		<g>
			<path class="st2" d="M39.3,105.6c1.7-3.9,4.4-10.2,5.9-14.3c1.4,0,1.9,0.1,3.1,0c0.9,3.4,3.1,10.8,4.1,14.2c-1,0-1.5,0-2.7,0
				c-0.3-1.2-1-3.9-1.4-5.1H44c-0.7,1.6-1.3,3.3-1.9,5C41.1,105.5,40.5,105.6,39.3,105.6z M44.7,98.4h3.2l-1.3-4.8
				C46.2,94.7,45.2,97.3,44.7,98.4z"/>
			<path class="st2" d="M55.5,91.4c1.3,0,1.3,0.1,2.6,0c0.3,3.1-2.8,14.8,3.9,11.7c1.9-1.4,1.2-9,1.5-11.7c1.1,0,1.7,0,2.6,0
				c-0.1,2.2-0.3,6.8-0.4,9c0.2,3.4-2.2,5.6-5.4,5.4c-4.1,0.2-5.7-2.8-5-6.6C55.3,96.8,55.5,93.9,55.5,91.4z"/>
			<path class="st2" d="M67.7,105.6c1.3-1.9,3.4-5.3,4.6-7.3c-0.7-1.4-2.8-5.5-3.5-6.9c1.1,0,1.8,0.1,2.9,0c0.5,1.4,1.4,3.5,1.9,4.7
				c0.7-1.1,2.3-3.5,3-4.7c1.1,0,1.5,0.1,2.8,0c-1.1,1.8-3,4.8-4.2,6.7c0.8,1.6,2,4.1,3.8,7.5c-1.3,0-1.8-0.1-2.9,0
				c-0.6-1.2-1.9-3.7-2.5-4.9c-0.7,1.2-2.3,3.6-3.1,4.9C69.3,105.6,68.9,105.6,67.7,105.6z"/>
			<path class="st2" d="M81.5,105.6c0.2-4.3,0.5-10.3,0.4-14.2c1.1,0,1.3,0.1,2.6,0c-0.2,3.7-0.4,8.4-0.4,14.2
				C83.1,105.6,82.9,105.6,81.5,105.6z"/>
			<path class="st2" d="M87.8,105.6c0.3-4.2,0.5-9.9,0.6-14.2c1.2,0,1.4,0.1,2.6,0c-0.2,3.6-0.4,8.3-0.5,12c1.9,0,3.9,0,5.3-0.1
				c-0.1,0.7-0.1,1.4-0.1,2.3C92.8,105.6,90.5,105.5,87.8,105.6z"/>
			<path class="st2" d="M98.4,105.6c0.2-4.3,0.5-10.3,0.4-14.2c1.1,0,1.3,0.1,2.6,0c-0.2,3.7-0.4,8.4-0.4,14.2
				C100.1,105.6,99.8,105.6,98.4,105.6z"/>
			<path class="st2" d="M103.3,105.6c1.7-3.9,4.4-10.2,5.9-14.3c1.4,0,1.9,0.1,3.1,0c0.9,3.4,3.1,10.8,4.1,14.2c-1,0-1.5,0-2.7,0
				c-0.3-1.2-1-3.9-1.4-5.1H108c-0.7,1.6-1.3,3.3-1.9,5C105.1,105.5,104.5,105.6,103.3,105.6z M108.7,98.4h3.2l-1.3-4.8
				C110.2,94.7,109.2,97.3,108.7,98.4z"/>
			<path class="st2" d="M119,105.6c0.3-3.9,0.5-10.3,0.5-14.2c2.6,0.3,5.4-0.7,7.6,0.7c2.3,2,1.1,6.5-2,6.9c0.8,2,1.9,4.3,2.9,6.5
				c-1.5,0-1.3-0.1-2.8,0c-0.8-2.5-1.9-5.3-2.9-7.9c2.3,0.9,4.8-1.9,2.9-3.8c-1-0.7-2.2-0.4-3.4-0.4c-0.1,2.7-0.2,9.4-0.3,12.1
				C120.6,105.5,120.1,105.6,119,105.6z"/>
			<path class="st2" d="M136,105.6c0.4-3.6,0.8-10.6,1-14.2c1.7,0,1.6,0.1,3.3,0c0.6,3.4,1.8,7.1,2.4,10.5c0.8-3.1,2.4-7.5,3.2-10.6
				c1.4,0,1.9,0.1,3.4,0c-0.2,4.3-0.3,10.2-0.2,14.2c-1.1,0-1.2-0.1-2.3,0c0.1-3.3,0.2-8.2,0.2-11.4c-0.2,0.8-3.3,10.9-3.4,11.4
				c-1.2,0-1.1-0.1-2.3,0c-0.7-3.2-1.9-8.2-2.6-11.3c-0.2,2.9-0.5,8.3-0.6,11.3C137.4,105.5,136.9,105.6,136,105.6z"/>
			<path class="st2" d="M151.2,105.6c1.7-3.9,4.4-10.2,5.9-14.3c1.4,0,1.9,0.1,3.1,0c0.9,3.4,3.1,10.8,4.1,14.2c-1,0-1.5,0-2.7,0
				c-0.3-1.1-1-3.9-1.4-5.1h-4.4c-0.7,1.6-1.3,3.3-1.9,5C152.9,105.5,152.4,105.6,151.2,105.6z M156.6,98.4h3.2l-1.3-4.8
				C158.1,94.7,157,97.3,156.6,98.4z"/>
			<path class="st2" d="M166.9,105.6c0.3-4.1,0.5-10.1,0.5-14.2c1.3,0,1.7,0.1,3.1,0c1.2,2.6,4,8.2,5.3,10.8
				c0-0.7,0.4-10.5,0.3-10.8c1.2,0,1,0.1,2.4,0c-0.2,4.1-0.5,10.1-0.5,14.2c-1.3,0-1.6-0.1-3,0c-1.4-3.1-3.7-7.2-5.3-10.7
				c-0.1,2-0.2,7.3-0.3,10.7C168.1,105.6,168.2,105.6,166.9,105.6z"/>
			<path class="st2" d="M181.7,105.6c0.2-4.3,0.5-10.3,0.4-14.2c1.1,0,1.3,0.1,2.6,0c-0.2,3.7-0.4,8.4-0.4,14.2
				C183.3,105.6,183,105.6,181.7,105.6z"/>
			<path class="st2" d="M188.1,105.6c0.3-4.4,0.4-9.8,0.4-14.2c2.1,0.2,4.5-0.3,6.4,0.2c4.1,2.2,1.2,9.6-3.4,8.1
				c-0.1-0.7-0.3-1.4-0.4-2c2.3,1,4.4-1.8,2.9-3.7c-0.8-0.7-2.1-0.3-3.1-0.3c-0.2,3.8-0.3,8.5-0.3,12.1
				C189.6,105.7,189.3,105.6,188.1,105.6z"/>
			<path class="st2" d="M199.9,91.4c1.3,0,1.3,0.1,2.6,0c0.3,3.1-2.8,14.8,3.9,11.7c1.9-1.3,1.2-9,1.5-11.7c1.1,0,1.7,0,2.6,0
				c-0.1,2.2-0.3,6.8-0.4,9c0.2,3.4-2.2,5.6-5.4,5.4c-4.1,0.2-5.7-2.8-5-6.6C199.8,96.8,199.9,93.9,199.9,91.4z"/>
			<path class="st2" d="M213.6,105.6c0.3-4.2,0.5-9.9,0.6-14.2c1.2,0,1.4,0.1,2.6,0c-0.2,3.6-0.4,8.3-0.5,12c1.9,0.1,3.9,0,5.3-0.1
				c-0.1,0.7-0.1,1.4-0.1,2.3C218.6,105.6,216.3,105.5,213.6,105.6z"/>
			<path class="st2" d="M222.7,105.6c1.7-3.9,4.4-10.2,5.9-14.3c1.4,0,1.9,0.1,3.1,0c0.9,3.4,3.1,10.8,4.1,14.2c-1,0-1.5,0-2.7,0
				c-0.3-1.1-1-3.9-1.4-5.1h-4.4c-0.7,1.6-1.3,3.3-1.9,5C224.4,105.5,223.9,105.6,222.7,105.6z M228.1,98.4h3.2l-1.3-4.8
				C229.6,94.7,228.6,97.3,228.1,98.4z"/>
			<path class="st2" d="M238.4,105.6c0.3-4.5,0.5-9.7,0.5-14.2c2.7,0.3,5.9-0.6,8.3,0.7c3.5,2.6,3,8.9,0.5,11.9
				C245.3,106.5,241.8,105.3,238.4,105.6z M241,103.4c3.9,0.6,6.4-1.4,6.2-5.4c0.1-4.1-2.3-4.8-5.9-4.4L241,103.4z"/>
			<path class="st2" d="M259.1,91.1c8.6-0.2,8.1,15.2-0.4,14.7C249.9,106.2,250.6,90.7,259.1,91.1z M259,93.3
				c-5.3,0-5.6,10.2-0.2,10.3C264,103.6,264.3,93.3,259,93.3z"/>
			<path class="st2" d="M268.3,105.6c0.3-3.9,0.5-10.3,0.5-14.2c2.6,0.3,5.4-0.7,7.6,0.7c2.3,2,1.1,6.5-2,6.9c0.8,2,1.9,4.3,2.9,6.5
				c-1.5,0-1.3-0.1-2.8,0c-0.8-2.5-1.9-5.3-2.9-7.9c2.3,0.9,4.7-1.9,2.9-3.8c-1-0.7-2.2-0.4-3.4-0.4c-0.1,2.7-0.2,9.4-0.3,12.1
				C269.9,105.5,269.4,105.6,268.3,105.6z"/>
			<path class="st2" d="M278.9,105.6c1.7-3.9,4.4-10.2,5.9-14.3c1.4,0,1.9,0.1,3.1,0c0.9,3.4,3.1,10.8,4.1,14.2c-1,0-1.5,0-2.7,0
				c-0.3-1.1-1-3.9-1.4-5.1h-4.4c-0.7,1.6-1.3,3.3-1.9,5C280.6,105.5,280.1,105.6,278.9,105.6z M284.3,98.4h3.2l-1.3-4.8
				C285.8,94.7,284.8,97.3,284.3,98.4z"/>
			<path class="st2" d="M40.8,131.2c0.3-4.5,0.5-9.7,0.5-14.2c2.7,0.3,5.9-0.6,8.3,0.7c3.5,2.6,3,8.9,0.5,11.9
				C47.7,132.1,44.2,130.9,40.8,131.2z M43.4,129c3.9,0.6,6.4-1.4,6.2-5.4c0.1-4.1-2.3-4.8-5.9-4.4L43.4,129z"/>
			<path class="st2" d="M55.1,131.2c0.3-4.4,0.5-9.9,0.5-14.2c2.6,0,5.7,0,8.3,0l-0.1,2.2c-1.9-0.2-3.9-0.1-5.7-0.1l-0.1,3.7
				c1.9,0.1,2.7,0,5,0c-0.1,0.6-0.1,1.4-0.1,2.3c-2.9,0-2.6,0-5,0l-0.1,3.9c1.5,0,4,0,5.8-0.1c-0.1,0.8-0.1,1.6-0.1,2.3
				C60.5,131.2,57.8,131.1,55.1,131.2z"/>
			<path class="st2" d="M66.8,131.2c0.3-4.2,0.5-9.9,0.6-14.2c1.2,0,1.4,0.1,2.6,0c-0.2,3.6-0.4,8.3-0.5,12c1.9,0,3.9,0,5.3-0.1
				c-0.1,0.7-0.1,1.4-0.1,2.3C71.8,131.2,69.5,131.2,66.8,131.2z"/>
			<path class="st2" d="M91.7,128.6c-0.1,0.8-0.2,1.6-0.3,2.5c-12.8,3.8-12-17.7,0.4-13.9c0,1,0.1,1.6,0.1,2.4
				C82.7,115.7,82,132.8,91.7,128.6z"/>
			<path class="st2" d="M93.3,131.2c1.7-3.9,4.4-10.2,5.9-14.3c1.4,0,1.9,0.1,3.1,0c0.9,3.4,3.1,10.8,4.1,14.2c-1,0-1.5,0-2.7,0
				c-0.3-1.2-1-3.9-1.4-5.1H98c-0.7,1.6-1.3,3.3-1.9,5C95.1,131.1,94.6,131.2,93.3,131.2z M98.8,124h3.2l-1.3-4.8
				C100.3,120.3,99.2,122.9,98.8,124z"/>
			<path class="st2" d="M109.1,131.2c0.3-3.9,0.5-10.3,0.5-14.2c2.6,0.3,5.4-0.7,7.6,0.7c2.3,2,1.1,6.5-2,6.9c0.8,2,1.9,4.3,2.9,6.5
				c-1.5,0-1.3-0.1-2.8,0c-0.8-2.5-1.9-5.3-2.9-7.9c2.3,0.9,4.8-1.9,2.9-3.8c-1-0.7-2.2-0.4-3.4-0.4c-0.1,2.7-0.2,9.4-0.3,12.1
				C110.7,131.2,110.2,131.2,109.1,131.2z"/>
			<path class="st2" d="M123.6,131.2c0.2-3.5,0.4-8.5,0.5-12c-1,0-2.6,0-3.6,0.1c0.1-1,0.1-1.8,0.1-2.3c3,0,6.6,0,9.6,0
				c-0.1,1-0.1,1.8-0.1,2.3c-1.2-0.1-2.3-0.1-3.5-0.1c-0.1,3-0.4,9-0.3,12C125.2,131.3,124.9,131.2,123.6,131.2z"/>
			<path class="st2" d="M138.9,116.8c8.6-0.2,8.1,15.2-0.4,14.7C129.6,131.8,130.3,116.4,138.9,116.8z M138.7,119
				c-5.3,0-5.6,10.3-0.2,10.3C143.7,129.3,144,119,138.7,119z M137.9,115.7c0.3-0.8,0.6-1.7,0.8-2.5c1,0,1.4,0.1,2.5,0
				c-0.6,1-1,1.7-1.5,2.5C139.1,115.7,138.5,115.7,137.9,115.7z"/>
			<path class="st2" d="M148,131.2c0.3-4.1,0.5-10.1,0.5-14.2c1.3,0,1.7,0.1,3.1,0c1.2,2.6,4,8.2,5.3,10.8c0-0.7,0.4-10.5,0.3-10.8
				c1.2,0,1,0.1,2.4,0c-0.2,4.1-0.5,10.1-0.5,14.2c-1.3,0-1.6-0.1-3,0c-1.4-3.1-3.7-7.2-5.3-10.7c-0.1,2-0.2,7.3-0.3,10.7
				C149.2,131.3,149.3,131.2,148,131.2z"/>
			<path class="st2" d="M161.8,133.7c0.4-1.3,0.8-2.8,1.2-4.5c1.3,0,1.2,0.1,2.5,0c-0.7,1.4-1.5,3.1-2.1,4.5
				C162.7,133.7,162.4,133.7,161.8,133.7z"/>
			<path class="st2" d="M173.2,131c0-0.9-0.1-1.6-0.1-2.1c1.5,1,4.4,1.2,3.9-1.1c-0.4-0.8-1.7-2-2.5-3c-2.9-3.4,0.6-6.6,4.3-5.2
				c0,0.6,0.1,1.3,0.1,2c-1.5-1-4.4-0.4-3.2,1.7c0.7,0.8,1.6,1.8,2.3,2.6C180.9,129.6,176.9,132.5,173.2,131z"/>
			<path class="st2" d="M181.6,131.2c0-0.4,0.1-1.2,0.1-2.3c0.7,0,1,0.1,1.9,0c0,0.7-0.1,1.6-0.1,2.3
				C182.7,131.2,182.8,131.2,181.6,131.2z"/>
			<path class="st2" d="M186.4,131.2c0.3-3.5,0.4-8.1,0.5-11.6c1,0,1.2,0.1,2.2,0c-0.2,2.9-0.3,6.8-0.4,9.8c1.6,0,3.2,0.1,4.4,0
				c0,0.5-0.1,1.2-0.1,1.8C190.5,131.2,188.6,131.2,186.4,131.2z"/>
			<path class="st2" d="M195,131.2c0-0.4,0.1-1.2,0.1-2.3c0.7,0,1,0.1,1.9,0c0,0.7-0.1,1.6-0.1,2.3
				C196.1,131.2,196.1,131.2,195,131.2z"/>
		</g>
	</g>
</g>
</svg>
