<?xml version="1.0" encoding="utf-8"?>
<!-- Generator: Adobe Illustrator 27.1.0, SVG Export Plug-In . SVG Version: 6.00 Build 0)  -->
<svg version="1.1" id="Capa_2" xmlns="http://www.w3.org/2000/svg" xmlns:xlink="http://www.w3.org/1999/xlink" x="0px" y="0px"
	 viewBox="0 0 399.2 202.8" style="enable-background:new 0 0 399.2 202.8;" xml:space="preserve">
<style type="text/css">
	.st0{fill:#EBA900;}
</style>
<polygon class="st0" points="3,202.8 398,202.8 399,201.7 379.2,95.6 380.2,94.4 396.7,93.4 396.7,63.3 395.7,62.3 373.5,62.3 
	372.5,63.4 373.3,72.6 372.4,73.7 360.9,73.7 360,72.6 360.8,63.2 359.8,62.1 338.7,62.1 337.7,63.2 338.3,72.6 337.4,73.7 
	326.2,73.7 325.3,72.6 325.9,63.2 324.9,62.1 305,62.1 304,63.1 305,96.6 319.7,96.9 320.6,98 303.1,192.9 291,191.8 277.1,117 
	278.1,115.8 286.4,115.8 287.4,114.8 286.2,86.6 270.2,86.6 269.2,87.7 269.7,94.6 268.7,95.7 260.4,95.7 259.4,94.6 259.9,87.7 
	258.9,86.6 243,86.6 242,87.6 242.5,94.7 241.5,95.7 230.7,95.7 229.7,94.7 230.2,87.6 229.2,86.6 210.6,86.6 209.6,112.8 
	210.6,113.8 223.9,113.8 224.9,114.9 216.5,165 214.6,165 198.7,85.2 199.7,84 218.9,84 219.9,83 219.9,51.5 218.9,50.5 196.5,50.5 
	195.5,51.6 196.2,61 195.3,62.1 182.8,62.1 181.9,61 182.6,51.6 181.6,50.5 157.7,50.5 156.7,51.6 157.6,61 156.7,62.1 144.9,62.1 
	144,61 144.9,51.6 143.9,50.5 118.8,50.5 117.8,51.5 117.8,83.1 118.8,84.1 137.4,84.1 138.3,85.2 127.8,160.4 125.9,160.5 
	107.7,47.7 108.7,46.6 133.4,45.6 133.4,1 132.4,0 98.2,0 97.2,1.1 98.3,15.7 97.3,16.8 81.4,16.8 80.4,15.7 81.5,1.1 80.5,0 
	48.9,0 48,1 48.7,15.8 47.7,16.8 31.5,16.8 30.5,15.8 31.2,1 30.3,0 1,0 0,1 0,44.4 27.2,45.4 28.2,46.5 2.1,201.7 3,202.8 "/>
</svg>
