<?xml version="1.0" encoding="utf-8"?>
<!-- Generator: Adobe Illustrator 27.1.0, SVG Export Plug-In . SVG Version: 6.00 Build 0)  -->
<svg version="1.1" id="Capa_1" xmlns="http://www.w3.org/2000/svg" xmlns:xlink="http://www.w3.org/1999/xlink" x="0px" y="0px"
	 viewBox="0 0 399.2 202.8" style="enable-background:new 0 0 399.2 202.8;" xml:space="preserve">
<style type="text/css">
	.st0{fill:#EBA900;}
</style>
<path class="st0" d="M3,202.8h395c0.6,0,1.1-0.6,1-1.2l-19.8-106c-0.1-0.6,0.4-1.2,1-1.2h15.5c0.5,0,1-0.4,1-1V63.3c0-0.5-0.4-1-1-1
	h-22.2c-0.6,0-1,0.5-1,1.1l0.8,9.3c0.1,0.6-0.4,1.1-1,1.1h-11.4c-0.6,0-1-0.5-1-1.1l0.8-9.5c0.1-0.6-0.4-1.1-1-1.1h-21.2
	c-0.6,0-1,0.5-1,1.1l0.7,9.5c0,0.6-0.4,1.1-1,1.1h-11.1c-0.6,0-1-0.5-1-1.1l0.7-9.5c0-0.6-0.4-1.1-1-1.1h-20c-0.5,0-1,0.4-1,1v32.6
	c0,0.5,0.4,1,1,1l14.7,0.3c0.6,0,1.1,0.6,0.9,1.2l-16.6,94c-0.1,0.5-0.5,0.8-1,0.8l-11.2-0.3c-0.5,0-0.9-0.3-0.9-0.8L277.1,117
	c-0.1-0.6,0.4-1.2,1-1.2h8.3c0.5,0,1-0.4,1-1l-0.2-27.2c0-0.5-0.4-1-1-1h-16.1c-0.6,0-1,0.5-1,1.1l0.5,7c0,0.6-0.4,1.1-1,1.1h-8.3
	c-0.6,0-1-0.5-1-1.1l0.5-7c0-0.6-0.4-1.1-1-1.1h-16c-0.6,0-1,0.5-1,1l0.5,7c0,0.6-0.4,1-1,1h-10.8c-0.6,0-1-0.5-1-1l0.5-7
	c0-0.6-0.4-1-1-1h-18.7c-0.5,0-1,0.4-1,1v25.2c0,0.5,0.4,1,1,1h13.4c0.6,0,1.1,0.5,1,1.1l-8.4,50.1c-0.2,1.1-1.7,1.1-1.9,0
	l-15.8-79.9c-0.1-0.6,0.3-1.2,1-1.2h19.2c0.5,0,1-0.4,1-1V51.5c0-0.5-0.4-1-1-1h-22.5c-0.6,0-1,0.5-1,1.1l0.8,9.5
	c0,0.6-0.4,1.1-1,1.1h-12.4c-0.6,0-1-0.5-1-1.1l0.8-9.5c0-0.6-0.4-1.1-1-1.1h-24c-0.6,0-1,0.5-1,1.1l0.9,9.4c0.1,0.6-0.4,1.1-1,1.1
	h-11.7c-0.6,0-1-0.5-1-1.1l0.9-9.4c0.1-0.6-0.4-1.1-1-1.1h-25.1c-0.5,0-1,0.4-1,1v31.6c0,0.5,0.4,1,1,1h18.6c0.6,0,1.1,0.5,1,1.1
	l-10.5,75.2c-0.2,1.1-1.8,1.1-1.9,0l-18-112.7c-0.1-0.6,0.4-1.1,1-1.1h23.8c0.5,0,1-0.4,1-1V1c0-0.5-0.4-1-1-1H98.2
	c-0.6,0-1,0.5-1,1.1l1.1,14.7c0,0.6-0.4,1.1-1,1.1h-16c-0.6,0-1-0.5-1-1.1l1.1-14.7c0-0.6-0.4-1.1-1-1.1H48.9c-0.6,0-1,0.5-1,1
	l0.7,14.7c0,0.6-0.4,1-1,1H31.5c-0.6,0-1-0.5-1-1L31.2,1c0-0.6-0.4-1-1-1H1C0.4,0,0,0.4,0,1v43.4c0,0.5,0.4,1,1,1h26.3
	c0.6,0,1.1,0.5,1,1.1L2.1,201.7C2,202.3,2.4,202.8,3,202.8z"/>
</svg>
